<svg id="Layer_1" data-name="Layer 1" xmlns="http://www.w3.org/2000/svg" viewBox="0 0 300 300"><defs><style>.cls-1{fill:#ff6e83;}</style></defs><path class="cls-1" d="M256.21,208.24c-1.15-2.3-3-2.66-5.27-2.54-4.42.25-8.85.46-13.26.73l-71.93,4.37q0-74.3,0-148.61c0-3.7.16-8.07-4.7-8.07-5.08,0-4.45,4.55-4.45,8.12,0,23,0,46,0,68.93q.07,40.16.26,80.29a9.51,9.51,0,0,1-1.83.48q-52.07,3.3-104.11,6.55c-7.93.48-9.4,2.94-5.49,9.8,6.67,11.7,13.46,23.33,20,35.11A7.61,7.61,0,0,0,73,267.82q67.4-.12,134.79,0c2.67,0,4.93-.45,6.7-2.7q20.3-25.86,40.65-51.67C256.27,211.94,257.27,210.37,256.21,208.24Z"/><path class="cls-1" d="M76.2,199.25c21.64-1.47,43.27-3.19,64.93-4.33,5.73-.31,6.81-2.5,6.78-7.69-.2-36.46-.09-72.93-.15-109.4,0-2,.76-4.16-1.06-6.3-.76.5-1.22.64-1.41,1Q109.11,133.23,73,194C70.68,197.85,71.91,199.54,76.2,199.25Z"/><path class="cls-1" d="M175.7,176.25c.07,6.47,1.2,9.17,6.93,9.46,21.68,1.07,43.34,2.86,65,4.35,4.3.29,5.5-1.84,3.13-6.59Q213.4,108.39,176,33.34c-.19-.39-.66-.56-1.43-1.16-1.78,2.68-1,5.39-.94,7.86C174.33,85.44,175.17,130.84,175.7,176.25Z"/></svg>