<svg id="Layer_1" data-name="Layer 1" xmlns="http://www.w3.org/2000/svg" viewBox="0 0 300 300"><defs><style>.cls-1{fill:#ff6e83;}</style></defs><path class="cls-1" d="M197.09,178.19a17.31,17.31,0,0,0-4.1-2.95c-5.13-2.66-10.86-1.53-15.45,3-4.43,4.37-8.8,8.81-13.19,13.24-.85.85-1.69,1.58-3,.87-3.41-1.85-7-3.5-10.23-5.58-11.28-7.17-20.82-16.29-29.43-26.44-5.46-6.45-10.45-13.21-13.81-21.05-.86-2-.8-2.27.78-3.83,4.29-4.26,8.63-8.48,12.85-12.81,5.91-6.07,6.28-13.36.57-19.34-7.4-7.75-15.08-15.22-22.71-22.75a13.06,13.06,0,0,0-8.18-3.82c-4.39-.37-8,1.36-11,4.34C76,85.21,71.92,89.52,67.57,93.51c-5.54,5.08-8,11.33-8,18.72,0,8.57,2.14,16.65,5.11,24.59,6.35,17,15.8,32.06,27.27,46,18.44,22.38,40.8,39.59,67.48,51.06,8.81,3.79,18,6.29,26.47,6.47,9,.07,14.86-2.19,19.71-7.1l13-13.09.38-.39c5.89-6.26,5.93-13.66-.09-19.8C211.69,192.61,204.4,185.39,197.09,178.19Z"/><path class="cls-1" d="M240.34,139.5a79,79,0,0,0-1.42-8.8Q227,81,178.88,63.75a77.58,77.58,0,0,0-18.95-4.06c-5.46-.07-9.41,3.55-9.82,8.55A9.08,9.08,0,0,0,158,77.92l3.13.43a71.91,71.91,0,0,1,61,63.13,9.2,9.2,0,1,0,18.28-2Z"/><path class="cls-1" d="M158.31,110.26c11.05,2,19.6,8,25.83,17.32A38,38,0,0,1,189.9,142a9.18,9.18,0,0,0,18.19-2.51A58.13,58.13,0,0,0,160.61,92a9,9,0,0,0-9.43,4.74C148.3,102.12,151.37,109,158.31,110.26Z"/></svg>