<svg id="Layer_1" data-name="Layer 1" xmlns="http://www.w3.org/2000/svg" viewBox="0 0 150 150"><path d="M52.13,39.9c1.21-14.34,12-21.59,21.52-22a22.39,22.39,0,0,1,16.81,5.94A22.92,22.92,0,0,1,97.92,39.9h11.91c3.3,0,4.34.9,4.63,4.14q1.76,19.76,3.48,39.52c.88,10,1.75,19.9,2.69,29.85,1,10.46-5.4,18.13-15.92,18.57-7.34.3-14.69.17-22,.18q-17.37,0-34.75,0c-3.87,0-7.62-.58-11-2.68-5.45-3.43-8.2-8.24-7.61-14.79Q31.41,92,33.45,69.22q1.11-12.55,2.19-25.12c.27-3.2,1.32-4.2,4.59-4.2Zm.11,7c-2.92,0-5.62.07-8.31,0-1.28-.05-1.52.48-1.62,1.63-1.17,13.58-2.4,27.16-3.61,40.74-.79,8.9-1.55,17.8-2.36,26.69-.28,3.11,1.16,5.32,3.53,7a12,12,0,0,0,7.32,2.13c18.58,0,37.16,0,55.73-.06a16.17,16.17,0,0,0,5.49-1.06c3.29-1.22,5.63-4.54,5.41-7.34-.4-5.1-.85-10.19-1.3-15.28q-2.08-23.53-4.19-47.07c-.22-2.43-.48-4.86-.71-7.27H97.83c0,3.06,0,6,0,8.92a3.48,3.48,0,0,1-7,.29c-.12-1.46,0-2.94,0-4.41V47H59.27v7.67c0,3.29-1.14,4.91-3.46,4.92s-3.56-1.52-3.57-5Zm38.45-7.09c.14-7.87-7.47-15.13-15.58-15-8.43.09-15.84,7.14-15.69,15Z"/></svg>