<svg id="Layer_1" data-name="Layer 1" xmlns="http://www.w3.org/2000/svg" viewBox="0 0 300 300"><defs><style>.cls-1{fill:#1a1a1a;}</style></defs><path class="cls-1" d="M160.15,21.83c4.43.69,8.88,1.32,13.29,2.08,50.37,8.65,92.61,49.62,102.24,99.81,8.65,45.05-3,84.47-35.23,117.19-22.29,22.64-49.94,34.83-81.68,37C95.1,282.14,38.09,239.81,24.8,177.5c-9.36-43.83,1.59-82.92,32.32-115.8C79,38.25,106.49,25.39,138.48,22.29a7.17,7.17,0,0,0,1.45-.46Zm-1.08,133.22h30V127h-30c0-7.08-.18-13.89.06-20.69.19-5.48,3.49-9.09,8.87-10.08a51.08,51.08,0,0,1,7.92-.65c4.23-.1,8.47,0,12.75,0V69.21H168.05a40.6,40.6,0,0,0-17.82,3.69c-11.16,5.4-18.06,14.2-19.06,26.73-.61,7.57-.22,15.21-.3,22.83,0,1.48-.18,3-.29,4.65H111.25v28.16h19.54v75.28h28.28Z"/></svg>