<svg id="Layer_1" data-name="Layer 1" xmlns="http://www.w3.org/2000/svg" viewBox="0 0 150 150"><path d="M75,122.7l-6.58-6.58Q50.8,98.44,33.11,80.77a37.8,37.8,0,0,1-6.5-8.09A30.44,30.44,0,0,1,48,27.8C58.21,26.07,67.13,29,74.64,36.15l.29.28h0c1.62-1.29,3.12-2.64,4.76-3.78C97.88,20,123.46,31,126.87,52.84c1.64,10.51-1.52,19.52-9.07,27q-19,18.95-38,38Zm0-72.33-6.31-6.74A20.59,20.59,0,0,0,49.87,37,21,21,0,0,0,38.7,73q17.82,17.75,35.56,35.59a5.08,5.08,0,0,1,.6,1c.63-.69,1-1.08,1.31-1.44q17.7-17.72,35.39-35.43a20.28,20.28,0,0,0,5.83-19.31A20.71,20.71,0,0,0,98.13,36.82a20.12,20.12,0,0,0-16.42,6.42C79.47,45.56,77.29,47.94,75,50.37Z"/></svg>