<svg id="Layer_1" data-name="Layer 1" xmlns="http://www.w3.org/2000/svg" viewBox="0 0 300 300"><defs><style>.cls-1{fill:#333;}</style></defs><path class="cls-1" d="M278.4,159.53c-.69,4.51-1.3,9-2.07,13.54-8.93,51.59-50.9,93.67-102.65,103-56.6,10.16-111.15-16.49-138-67.4-25-47.53-16.1-108.74,21.45-147.28A128.53,128.53,0,0,1,131.64,23c2.77-.42,5.56-.79,8.34-1.19h20.23c4.51.71,9,1.34,13.53,2.13,51.43,9,93.67,51.42,102.58,102.91.77,4.49,1.39,9,2.08,13.52Zm-49.34-9.76q0-29.24,0-58.48c0-12.42-7.86-20.19-20.32-20.19H91.35C78.74,71.1,71,78.88,71,91.48V208.17C71,221.23,78.7,229,91.81,229q58.29,0,116.58,0c12.92,0,20.67-7.8,20.67-20.73Q229.08,179,229.06,149.77Z"/><path class="cls-1" d="M196.75,137.68h14.57v66.86c0,4.55-1.48,6-6.08,6H95.06c-4.43,0-6-1.5-6-5.86q0-32.41,0-64.84c0-.69.11-1.37.18-2.15H103.6c-4.27,22.18,1.9,40.39,21,52.68,16.72,10.74,34.54,10.71,51.2,0C194.82,178.09,201.09,160,196.75,137.68Z"/><path class="cls-1" d="M150.24,120a30.22,30.22,0,1,1-.09,60.44,30.22,30.22,0,1,1,.09-60.44Z"/><path class="cls-1" d="M195.8,119.19c-3.46,0-6.91,0-10.37,0-3,0-4.6-1.56-4.62-4.58q-.09-10.48,0-21c0-2.72,1.56-4.38,4.25-4.41q10.77-.13,21.55,0c2.66,0,4.21,1.72,4.23,4.44q.07,10.5,0,21c0,3-1.65,4.51-4.67,4.55C202.72,119.23,199.26,119.19,195.8,119.19Z"/></svg>