<svg id="Layer_1" data-name="Layer 1" xmlns="http://www.w3.org/2000/svg" viewBox="0 0 300 300"><defs><style>.cls-1{fill:#333;}</style></defs><path class="cls-1" d="M278.27,149.94c-.3,73.23-60,128.77-128.64,128.22-75-.6-128-61.9-127.91-128.3.07-68.89,56-128.62,128.67-128C226.33,22.46,278.43,83.94,278.27,149.94ZM157.9,219.44c0-.73,0-1.35,0-2,.13-12,.21-24,.43-36,.12-6.45.31-12.91.78-19.35.41-5.58,3.91-9.46,9.33-10.9a30.9,30.9,0,0,1,13-.42,8.58,8.58,0,0,1,6.79,5.26,15,15,0,0,1,1.26,4.92c.33,4.68.57,9.38.6,14.07.08,14.2,0,28.41,0,42.61v1.78h28.91c0-.46.07-.78.06-1.09q-.58-31.55-1.18-63.1A37.56,37.56,0,0,0,215.42,143c-2.88-7.92-8.36-13.15-16.64-14.87a68.62,68.62,0,0,0-13.64-1.39c-10.29,0-19.1,3.58-25.73,11.76-.31.38-.71.69-1.4,1.35v-2.32c0-3.15-.06-6.3,0-9.45,0-1.28-.38-1.63-1.64-1.61-7.85.13-15.7.17-23.54.27-2.59,0-2.62.07-2.63,2.69q-.18,44.28-.33,88.57c0,.46.07.92.11,1.41ZM83.81,126.62v92.82c.62,0,1.14.07,1.66.07,8.17,0,16.34,0,24.51,0,1.49,0,1.87-.43,1.87-1.89q-.06-44.61,0-89.24c0-.57,0-1.14-.08-1.8Zm14-46.2c-9.17,0-16.41,7-16.28,16,.15,9.55,6.67,16.41,16.15,16.44,10,0,16.19-7.54,16.09-16.24C113.69,87.27,107.56,80.64,97.83,80.42Z"/></svg>