<svg id="Layer_1" data-name="Layer 1" xmlns="http://www.w3.org/2000/svg" viewBox="0 0 136.96 137.29"><defs><style>.cls-1{fill:#333;}</style></defs><path class="cls-1" d="M69.71,61.35h1.76c2.75,0,2.75.58,2.75.93V72.41H59.36V62.28c0-.44,0-.93,2.75-.93h1.76V56.67H48.42v4.68h1.76c2.24,0,2.63.36,2.64.36a1.4,1.4,0,0,1,.07.57V88c0,.92,0,1.3-2.71,1.3H48.42V94H63.87V89.28H62.11c-2.75,0-2.75-.43-2.75-1.3V77.1H74.22V88c0,.73,0,1.3-2.75,1.3H69.71V94H85.16V89.28H83.4c-2.75,0-2.75-.49-2.75-1.3V62.28c0-.41,0-.93,2.75-.93h1.76V56.67H69.71ZM56.32,60.18a2.32,2.32,0,0,0-.18.39,3.52,3.52,0,0,0-.16-.39Zm-.45,30.28a3.84,3.84,0,0,0,.26-.62,5,5,0,0,0,.27.62ZM77.6,60.18a3.34,3.34,0,0,0-.17.38,2.64,2.64,0,0,0-.18-.38Zm-.17,29.68a4,4,0,0,0,.26.6h-.54A4.11,4.11,0,0,0,77.43,89.86Z" transform="translate(-31.13 -6.29)"/><path class="cls-1" d="M102.53,55.87C91.32,55.87,86.21,66,86.21,75.34s5.11,19.38,16.32,19.38c11.54,0,16.79-10,16.79-19.38S114.07,55.87,102.53,55.87Zm0,34.16c-6.64,0-9.66-7.61-9.66-14.69s3-14.74,9.66-14.74c6.9,0,10,7.64,10,14.74S109.43,90,102.53,90Z" transform="translate(-31.13 -6.29)"/><path class="cls-1" d="M137.49,71.91h0c-6-1.65-8.29-3.42-8.29-6.53,0-4,3-4.83,5.57-4.83,4.19,0,7.63,2.37,10.53,7.23l.94,1.59,3.39-2.26L145.5,55.7l-3.92,1.44a7.37,7.37,0,0,1-1.21-.32,17,17,0,0,0-5.41-1c-8.72,0-11.81,5.55-11.81,10.31,0,8.09,8.18,10.52,12.12,11.69,7.68,2.23,8.84,3.46,8.84,6.54,0,2.41-.69,5.62-6.61,5.62S128,85.79,126,82.6l-.79-1.2-3.85,1.54L126,95.65l1.87-1.36a5.15,5.15,0,0,1,2.38-1.08,12.51,12.51,0,0,1,1.35.38,20.5,20.5,0,0,0,6,1.13c7.81,0,12.66-4.29,12.66-11.2C150.3,76,143.69,73.61,137.49,71.91Zm-9.73,18.4-.16-.42.4.32Z" transform="translate(-31.13 -6.29)"/><path class="cls-1" d="M157.3,38.26l.45-.29-1-.56-.19-.28c-2-5.77-4.29-14.64-4.2-21.52l0-3.87-7.08,12.37a70.13,70.13,0,0,0-19-12.16,69.36,69.36,0,0,0-25.22-5.63A67.65,67.65,0,0,0,53.35,24.24a68.54,68.54,0,0,0-22.08,46.1,69.09,69.09,0,0,0,15.78,48.53A68.42,68.42,0,0,0,157.3,38.26ZM35.5,70.63A65.64,65.64,0,0,1,41.76,47,64.9,64.9,0,0,1,56.27,27.44,66.1,66.1,0,0,1,101.05,9.91,66,66,0,0,1,143.32,25.6l-12.9,4.81,3.82.58c6.85,1,15.3,4.73,20.66,7.68l.2.3.22.61.12-.08a65.42,65.42,0,0,1-86.57,92.6A64.91,64.91,0,0,1,50,116.44,66.35,66.35,0,0,1,38.35,94.89,65.26,65.26,0,0,1,35.5,70.63Z" transform="translate(-31.13 -6.29)"/></svg>