<svg id="Layer_1" data-name="Layer 1" xmlns="http://www.w3.org/2000/svg" viewBox="0 0 300 300"><defs><style>.cls-1{fill:#ff6e83;}</style></defs><path class="cls-1" d="M248.38,162.52C245.63,121.62,214,92,173,92q-40.4,0-80.81,0H86.71c-.17-.44-.33-.87-.49-1.31,4.45-4.26,9-8.43,13.32-12.82,4.48-4.56,4.66-10.69.68-14.68-4.13-4.15-9.88-4-14.63.69Q70.26,79,55.1,94.3c-4.88,4.92-4.84,10.44.11,15.42q15,15.11,30.11,30c4.8,4.74,11,4.94,15.06.71s3.56-10-1-14.65c-4.22-4.25-8.66-8.28-13-12.4.24-.45.49-.89.73-1.33,30.28,0,60.56-.25,90.83.08,25.38.27,52.16,23.64,50.6,57.2-1.25,26.78-25.11,50.14-52.83,50.27-27.29.12-54.58,0-81.87.06-7.74,0-12.33,3.93-12.25,10.22.08,6.09,4.54,9.77,12,9.81,8.16,0,16.31.08,24.46,0,22-.22,44,.62,65.86-1C221,235.93,250.89,199.72,248.38,162.52Z"/></svg>