<svg id="Layer_1" data-name="Layer 1" xmlns="http://www.w3.org/2000/svg" viewBox="0 0 300 300"><defs><style>.cls-1{fill:#ff6e83;}</style></defs><path class="cls-1" d="M253.35,46.54h-1.72A147,147,0,0,0,222.2,49.9C188.11,57,158,72.28,131.53,94.79c-11,9.38-21.28,19.51-28.79,32.08-.08.13-.25.21-.35.3-15.82-5.67-30.36-1.73-41.1,11.17-10.14,12.19-14.48,26.46-14.73,42.12,0,2.51.21,5,.33,7.65A70.22,70.22,0,0,0,87,180.51c0,.51.06.83.07,1.16.15,4.31.24,8.62.51,12.92a4.53,4.53,0,0,0,1.23,2.66c3.67,3.81,7.69,7.31,11.12,11.32a11.93,11.93,0,0,0,10.33,4.49c3.07-.15,6.16,0,9.52,0A70.31,70.31,0,0,0,112,253.14a19.46,19.46,0,0,0,2,.22c3.73,0,7.48.24,11.19-.05,13.34-1.05,25.45-5.44,35.94-13.91,4.42-3.58,8.34-7.61,10.75-12.86,4.32-9.42,5-19,1-28.91.37-.25.65-.44.94-.62a108,108,0,0,0,21.26-17.21c33.43-34.72,53.88-75.53,58.15-123.92C253.58,52.83,253.35,49.73,253.35,46.54Zm-71.27,92.3a20.74,20.74,0,1,1,20.71-20.76A20.69,20.69,0,0,1,182.08,138.84Z"/><path class="cls-1" d="M95.66,219.48c-5.45,9-12.72,13-24.89,11.1a1.87,1.87,0,0,1-1.2-1.29,51.33,51.33,0,0,1-.32-7.73,21.74,21.74,0,0,1,16.4-19.09,17.57,17.57,0,0,0-24.15,4,28.12,28.12,0,0,0-3.93,7.22c-3.42,9.44-2.86,19.1-1,28.75a2.22,2.22,0,0,0,1.51,1.23,61.54,61.54,0,0,0,19.38,1c6.56-.76,12.7-2.65,17.72-7.23,7.26-6.63,6.79-16.68,2.53-23A33.85,33.85,0,0,1,95.66,219.48Z"/></svg>