<svg id="Layer_1" data-name="Layer 1" xmlns="http://www.w3.org/2000/svg" viewBox="0 0 300 300"><defs><style>.cls-1{fill:#ff6e83;}</style></defs><path class="cls-1" d="M205.44,187.69c-2.49,4.75-4.69,9.5-6.78,14.3a8.45,8.45,0,0,0-.7,3.32c-.05,12.05,0,24.11-.05,36.17,0,7.43-4.75,12.17-12.13,12.17q-55,0-110,0c-7.1,0-11.94-4.86-11.94-12q0-81.87,0-163.73c0-7,4.78-11.83,11.82-11.92,5-.07,10,0,15,0,.5,0,1,.08,1.46.11,1.16,7,3.25,8.7,10.3,8.7h57.71a17.76,17.76,0,0,0,3.26-.23,7.48,7.48,0,0,0,6-6.28c.09-.68.14-1.38.21-2.08,6.49,0,12.91-.4,19.26.12,5,.42,8.71,5.12,9.07,10.26.13,1.79.07,3.59.08,5.39,0,2.79,0,5.59,0,8.6,1.36-1.15,2.32-2.55,3.6-3,4.19-1.31,4.46-4.35,4.06-7.89a14.25,14.25,0,0,1,0-1.73c0-11.45-8.21-19.63-19.65-19.66-4.94,0-9.88,0-14.82,0-.81,0-1.54.16-1.84-1.08-1.08-4.46-3.71-6.45-8.24-6.46-3.21,0-6.42,0-9.62,0A6,6,0,0,1,145.33,45c-.35-4.29-2.53-6.35-6.83-6.37q-7.59,0-15.19,0c-4.4,0-6.39,1.84-6.9,6.26-.42,3.71-2.77,5.82-6.58,5.86-2.82,0-5.64,0-8.46,0-5.51,0-7.94,1.92-9.26,7.55-5.51,0-11,0-16.4,0-11.31,0-19.57,8.28-19.57,19.55q0,81.87,0,163.73c0,11.43,8.17,19.68,19.62,19.69q55.13.06,110.24,0c11.35,0,19.55-8.23,19.57-19.56q0-26.16,0-52.33C205.56,188.86,205.48,188.27,205.44,187.69ZM126.54,42.11a85.27,85.27,0,0,1,8.61,0A2.54,2.54,0,0,1,137.66,45,2.64,2.64,0,0,1,135,47.66c-1.4.1-2.81,0-4.22,0s-2.68.06-4,0a2.63,2.63,0,0,1-2.69-2.7A2.52,2.52,0,0,1,126.54,42.11Z"/><path class="cls-1" d="M237.73,81.83c-2.68-1.22-5.36-2.46-8-3.65-5.19-2.29-10.3-.37-12.68,4.76-.81,1.74-1.51,3.54-2.42,5.23a2.08,2.08,0,0,1-1.65.91c-6.45-1-10.85,1.23-13.52,7.13q-4.32,9.54-8.62,19.09c-.26.57-.48,1.14-.74,1.79l6.86,3.11c.35-.7.63-1.26.89-1.82q4.37-9.63,8.73-19.26c1-2.23,2-2.79,4.2-2.42-.29.66-.55,1.3-.83,1.94q-22.5,49.74-45,99.49a8.15,8.15,0,0,0-.79,3.48c.19,7.25.54,14.48.78,21.72.06,1.79.43,3.34,2.19,4.15s3.31.22,4.77-1c5.34-4.41,10.77-8.7,16.07-13.17a11.46,11.46,0,0,0,3-3.86q16.37-36,32.6-72,9.59-21.2,19.17-42.38C245.32,89.35,243.46,84.45,237.73,81.83ZM172.38,216.19c-.16-3.25-.29-6.12-.45-9.32l7.65,3.44Zm12.53-11.89L173,198.9l44.91-99.29,11.93,5.4C214.84,138.12,199.92,171.13,184.91,204.3Zm51-112.82c-1,2.08-1.9,4.17-3,6.53L221.07,92.6c1-2.31,2-4.47,3-6.6a1.61,1.61,0,0,1,2.37-.87c2.85,1.29,5.7,2.57,8.55,3.87A1.65,1.65,0,0,1,235.94,91.48Z"/><path class="cls-1" d="M180.62,153.76c1-2.26,2.76-4.37,1.95-7.18H117.09V154a11.62,11.62,0,0,0,1.19.13q30.48,0,61,0C179.72,154.13,180.49,154,180.62,153.76Z"/><path class="cls-1" d="M117.1,109.65h65.52v-7.38H117.1Z"/><path class="cls-1" d="M182.6,120.09v-7.4H117.12v7.4Z"/><path class="cls-1" d="M182.68,91.89H117.1v7.37h65.58Z"/><path class="cls-1" d="M176.06,164c1.11-2.26,2.11-4.58,3.19-7H117.1v7.33a2.41,2.41,0,0,0,.62.2q28.53,0,57.07,0A1.65,1.65,0,0,0,176.06,164Z"/><path class="cls-1" d="M171.38,174.24c1.16-2.19,2.09-4.49,3.15-6.85H117.07v7.53h12.59q19.89,0,39.77,0C170.1,174.89,171.15,174.68,171.38,174.24Z"/><path class="cls-1" d="M160.58,222.07H117.1v7.38h45.45C161.89,227,161.24,224.56,160.58,222.07Z"/><path class="cls-1" d="M117.14,219.16h43.4v-7.43h-43.4Z"/><path class="cls-1" d="M117.09,208.69H160.2v-7.4H117.09Z"/><path class="cls-1" d="M85,177.62l20.77-25.28-5.92-4.87c-4.9,6-9.72,11.8-14.59,17.73-.82-1-1.46-1.74-2.17-2.57-2.05,1.58-4,3.07-6,4.61Z"/><path class="cls-1" d="M85,232.32,105.72,207l-5.93-4.86-14.57,17.7-2.16-2.55-6,4.61C79.71,225.45,82.26,228.78,85,232.32Z"/><path class="cls-1" d="M105.71,97.65,99.8,92.77,85.22,110.48,83,107.94l-6,4.61c2.69,3.5,5.26,6.87,7.94,10.37Z"/><path class="cls-1" d="M190.89,133.67c1.78-3.93,3.46-7.65,5.24-11.57l-7-3.15-5.23,11.55Z"/><path class="cls-1" d="M174.37,229.44h8.28v-6.71Z"/></svg>