<svg id="Layer_1" data-name="Layer 1" xmlns="http://www.w3.org/2000/svg" viewBox="0 0 300 300"><defs><style>.cls-1{fill:#fbb03b;}</style></defs><path class="cls-1" d="M286.24,117.08a23.86,23.86,0,0,0-23-16.73H194.31L173,34.82a24.21,24.21,0,0,0-46,0l-21.29,65.53H36.78a24.2,24.2,0,0,0-14.22,43.79l55.74,40.5L57,250.17a23.84,23.84,0,0,0,8.79,27.06,23.84,23.84,0,0,0,28.45,0L150,236.73l55.75,40.5A24.2,24.2,0,0,0,243,250.17L221.7,184.64l55.74-40.5A23.84,23.84,0,0,0,286.24,117.08Zm-181.63,74A24.14,24.14,0,0,0,95.82,164L45.39,127.35h62.33a24.14,24.14,0,0,0,23-16.72L150,51.35l19.26,59.28a24.14,24.14,0,0,0,23,16.72h62.33L204.18,164a24.14,24.14,0,0,0-8.79,27.06l19.26,59.28-50.42-36.64a24.18,24.18,0,0,0-28.46,0L85.35,250.33Z"/></svg>