<svg id="Layer_1" data-name="Layer 1" xmlns="http://www.w3.org/2000/svg" viewBox="0 0 300 300"><defs><style>.cls-1{fill:#fbb03b;}</style></defs><path class="cls-1" d="M161,29.84l23.73,73a11.59,11.59,0,0,0,11,8h76.78c11.23,0,15.89,14.36,6.81,21L217.24,177A11.59,11.59,0,0,0,213,189.92l23.73,73c3.47,10.67-8.75,19.55-17.83,12.95l-62.12-45.13a11.59,11.59,0,0,0-13.62,0L81.07,275.9C72,282.5,59.77,273.62,63.24,263l23.73-73A11.59,11.59,0,0,0,82.76,177L20.64,131.83c-9.08-6.6-4.42-21,6.81-21h76.78a11.59,11.59,0,0,0,11-8l23.73-73C142.45,19.16,157.55,19.16,161,29.84Z"/></svg>