<svg id="Layer_1" data-name="Layer 1" xmlns="http://www.w3.org/2000/svg" viewBox="0 0 300 300"><defs><style>.cls-1{fill:#333;}</style></defs><path class="cls-1" d="M160.29,21.83c4.43.7,8.88,1.31,13.3,2.1,51.88,9.2,94.1,51.22,102.85,103.13,7.46,44.22-4.59,82.82-36.37,114.49C215.65,265.9,185.62,278.5,151,278.16,99,277.65,60.3,254,35.75,208.41c-24.63-45.7-16.8-104.59,18-143.3q33-36.72,82.14-42.62c1.38-.17,2.75-.44,4.12-.66Zm82.34,54.59c-6.55,2.47-13.16,4.91-19.72,7.47-3.12,1.21-5.36.57-8-1.71-22.5-19.44-57.68-7.54-63.66,21.58-1.09,5.34-.67,11-1,16.83-31.8-2.25-58.31-16-79.48-40.75A38.93,38.93,0,0,0,66.41,108c2.12,9.84,7.56,17.56,15.42,23.83a52.31,52.31,0,0,1-8.48-1.5c-2.69-.78-5.26-2-7.89-3-.87,4.28.89,12.25,4.24,18.56,5.44,10.24,14,16.65,25.45,19.88-.68.32-1,.58-1.29.59-4.92.28-9.84.53-14.94.79,6.23,16,18.07,25,35.9,26.74a77.22,77.22,0,0,1-27,13.5,79.81,79.81,0,0,1-29.75,2.37c.33.5.39.69.52.78.59.39,1.2.76,1.81,1.12a109.15,109.15,0,0,0,61.51,15.64c38.73-1.65,68.8-18.65,89.5-51.43A111.38,111.38,0,0,0,228.8,113a4.65,4.65,0,0,1,1.45-2.76c5.28-5.48,10.64-10.86,15.95-16.31a14.92,14.92,0,0,0,1.52-2.29l-20.1,5.63-.4-.79C234.55,91.27,240,84.68,242.63,76.42Z"/></svg>