<svg id="Layer_1" data-name="Layer 1" xmlns="http://www.w3.org/2000/svg" viewBox="0 0 150 150"><path d="M120.14,110.88C117.55,94.24,103.6,80.13,87,77.33c-5.62-1-11.28-.77-16.76-.6l-.36,0-2.51.07a31,31,0,0,0-6.23.92A41.14,41.14,0,0,0,29.5,113.33c-.16,1.35-.21,2.7-.23,3.84A8.25,8.25,0,0,0,38,126.1h74a8.26,8.26,0,0,0,8.75-9.09A56.13,56.13,0,0,0,120.14,110.88ZM113,118.33a2.34,2.34,0,0,1-1.14.16H38.22c-1,0-1.16-.16-1.16-.16a2.4,2.4,0,0,1-.14-1.15A33.34,33.34,0,0,1,68,84.43c2.64-.17,5.47-.32,8.29-.32a55,55,0,0,1,9.37.72,33.28,33.28,0,0,1,27.24,28.89c.12,1,.19,2.11.22,3.45A2.58,2.58,0,0,1,113,118.33Z"/><path d="M75,74.74H75a25.43,25.43,0,0,0,17.85-43.5,25,25,0,0,0-18-7.34,25.42,25.42,0,0,0,0,50.84ZM57.2,49.31A17.81,17.81,0,1,1,75,67.11,17.67,17.67,0,0,1,57.2,49.31Z"/></svg>